<?xml version="1.0" encoding="UTF-8"?> <svg xmlns="http://www.w3.org/2000/svg" xmlns:xlink="http://www.w3.org/1999/xlink" viewBox="0 0 47.08 55.9"><defs><style>.cls-1{fill:url(#Degradado_sin_nombre_10);}</style><linearGradient id="Degradado_sin_nombre_10" y1="27.95" x2="47.08" y2="27.95" gradientUnits="userSpaceOnUse"><stop offset="0" stop-color="#e2051b"></stop><stop offset="1" stop-color="#e95b0c"></stop></linearGradient></defs><title>Recurso 5</title><g id="Capa_2" data-name="Capa 2"><g id="Capa_1-2" data-name="Capa 1"><path class="cls-1" d="M47.07,19.44a3.68,3.68,0,0,0-2.17-3.62,3.09,3.09,0,0,1-1.72-2.29,16.6,16.6,0,0,0-4.07-7.06C33.21.28,25.84-1.06,17.92.74,10.86,2.34,6.17,7,3.92,13.93a2.6,2.6,0,0,1-1.43,1.76A4.22,4.22,0,0,0,.08,19.54c-.08,3-.13,6,0,9a4.53,4.53,0,0,0,4.34,4.55c1.11.08,2.48.25,2.62-1.27S5.88,30.25,4.8,30.18A1.68,1.68,0,0,1,3,28.35c0-2.85-.08-5.7.07-8.55a2.25,2.25,0,0,1,1.36-1.68c1.67-.22,1.94-1.36,2.15-2.62A13.08,13.08,0,0,1,9.7,9.09,18.64,18.64,0,0,1,31.76,4.65c4.93,2.37,8.13,6.15,9,11.7a1.69,1.69,0,0,0,1.59,1.59,2,2,0,0,1,1.89,2.27c0,2.61,0,5.22,0,7.82,0,1.18-.43,2-1.66,2.14-1.07.16-1.48.77-1.63,1.85a38.75,38.75,0,0,1-1.27,6.64,26.41,26.41,0,0,1-1.12,2.83,19.81,19.81,0,0,1-1.45,2.58,14.68,14.68,0,0,1-1.85,2.24A13.19,13.19,0,0,1,33,48.14a14.79,14.79,0,0,1-1.35.74c-.56.27-1.16.44-1.71.74a3.27,3.27,0,0,1-1.26.57.31.31,0,0,1-.36-.3v0a1.42,1.42,0,0,1,.13-.84,2.25,2.25,0,0,1,.95-.54l.31-.13c.48-.24,1-.43,1.45-.67s.9-.5,1.33-.78A13.19,13.19,0,0,0,34.74,45a13.83,13.83,0,0,0,1.78-2.26,15.17,15.17,0,0,0,1.31-2.61,19.64,19.64,0,0,0,.88-2.89v-.06a61.42,61.42,0,0,0,.51-21.59,11.43,11.43,0,0,0-5.72-8.29,18.11,18.11,0,0,0-15.59-2c-5.49,1.81-9.54,5.28-10,11.22a132.48,132.48,0,0,0,.09,18,15.6,15.6,0,0,0,7,12.55c.28.19.37.89.31,1.32-.31,2.09-.51,4.16,1.12,5.85,2.08,2.16,9.24,2.18,11.1-.16,1-1.24,2.57-1.48,4-2l.53-.22a20.16,20.16,0,0,0,9.8-10.41A26.28,26.28,0,0,0,43.71,34a2.48,2.48,0,0,1,1.11-1.48,4.34,4.34,0,0,0,2.26-3.92Q47,24,47.07,19.44ZM11.72,13.65c2.11-3.7,5.53-5.41,9.54-5.94C26.67,7,31.43,8.34,35,12.81a6.79,6.79,0,0,1,1.39,4.8c-1.56-1.39-2.73-.86-4.07,0-4.93,3.18-10.5,2.68-15.79-1.26C14.67,15,14.34,15,13,16.91c-.57.77-1.11,1.57-1.66,2.36l-.74-.52A9.08,9.08,0,0,1,11.72,13.65Zm14,37.89a2.36,2.36,0,0,1-1.64,1.24,25.82,25.82,0,0,1-4.31.06C18.51,52.8,18,52,18,50.45s.55-2.22,1.93-2.28c.67,0,1.34,0,2,0h1.3C25.49,48.17,26.45,49.34,25.76,51.54Zm.24-6a37.14,37.14,0,0,0-5.85-.24c-3,.34-4.78-1.28-6.43-3.29a15.42,15.42,0,0,1-3.22-9.39c-.14-3-.11-6,0-9a2.88,2.88,0,0,1,1-1.66c.81-.74,1.82-1.26,2.6-2a1.46,1.46,0,0,1,2.17-.23c5.54,3.44,11.26,4.09,17.13.76a1.91,1.91,0,0,1,3,1.33,42.27,42.27,0,0,1,.59,5.6A85.26,85.26,0,0,1,35.85,37a11.42,11.42,0,0,1-7.25,8.54A6.88,6.88,0,0,1,26,45.55Z"></path></g></g></svg> 