<?xml version="1.0" encoding="UTF-8"?> <svg xmlns="http://www.w3.org/2000/svg" xmlns:xlink="http://www.w3.org/1999/xlink" viewBox="0 0 56.98 57"><defs><style>.cls-1{fill:url(#Degradado_sin_nombre_10);}.cls-2{fill:url(#Degradado_sin_nombre_10-2);}.cls-3{fill:url(#Degradado_sin_nombre_10-3);}.cls-4{fill:url(#Degradado_sin_nombre_10-4);}</style><linearGradient id="Degradado_sin_nombre_10" x1="23.87" y1="37.71" x2="27.05" y2="37.71" gradientUnits="userSpaceOnUse"><stop offset="0" stop-color="#e2051b"></stop><stop offset="1" stop-color="#e95b0c"></stop></linearGradient><linearGradient id="Degradado_sin_nombre_10-2" x1="20.55" y1="12.53" x2="45.61" y2="12.53" xlink:href="#Degradado_sin_nombre_10"></linearGradient><linearGradient id="Degradado_sin_nombre_10-3" x1="0" y1="40.11" x2="56.98" y2="40.11" xlink:href="#Degradado_sin_nombre_10"></linearGradient><linearGradient id="Degradado_sin_nombre_10-4" x1="29.66" y1="12.53" x2="36" y2="12.53" xlink:href="#Degradado_sin_nombre_10"></linearGradient></defs><title>Recurso 3</title><g id="Capa_2" data-name="Capa 2"><g id="Capa_1-2" data-name="Capa 1"><path class="cls-1" d="M24.33,36.58a1.61,1.61,0,0,0,0,2.26,1.62,1.62,0,0,0,2.26,0h0a1.6,1.6,0,1,0-2.26-2.26Z"></path><path class="cls-2" d="M33.08,25.06A12.53,12.53,0,1,0,20.55,12.53,12.54,12.54,0,0,0,33.08,25.06ZM23.74,12.53a9.34,9.34,0,1,1,9.34,9.34A9.35,9.35,0,0,1,23.74,12.53Z"></path><path class="cls-3" d="M55.25,24.37a4.87,4.87,0,0,0-6.81.52l-6.09,6.25a4.86,4.86,0,0,0-3.41-1.4H26.85a14.71,14.71,0,0,0-5.58-1.09,14,14,0,0,0-12.6,7,3.78,3.78,0,0,0-3,1.09L.46,41.91a1.6,1.6,0,0,0,0,2.25L12.74,56.53a1.6,1.6,0,0,0,1.13.47A1.58,1.58,0,0,0,15,56.54l5.3-5.22a3.81,3.81,0,0,0,1-3.6l.92-.89a2.78,2.78,0,0,1,1.93-.78H38.67a10.21,10.21,0,0,0,7.17-2.9,25.08,25.08,0,0,0,1.87-2.21l8.12-9.7A4.87,4.87,0,0,0,55.25,24.37Zm-37,24.28a.58.58,0,0,1-.16.4l-4.17,4.11L3.84,43l4.08-4.1a.61.61,0,0,1,.76-.07l1.86,1.86L18,48.22A.63.63,0,0,1,18.21,48.65Zm20.46-5.79H24.13A5.94,5.94,0,0,0,20,44.54l-.58.55-7.95-8a10.89,10.89,0,0,1,9.81-5.3,11.42,11.42,0,0,1,4.62,1,1.7,1.7,0,0,0,.64.13H38.94a1.69,1.69,0,1,1,0,3.37H30a1.6,1.6,0,0,0,0,3.19h8.92a4.88,4.88,0,0,0,4.88-4.87c0-.14,0-.27,0-.4L48,29.91,50.82,27a1.69,1.69,0,0,1,3,.95,1.66,1.66,0,0,1-.4,1.24L43.62,40.87A7.1,7.1,0,0,1,38.67,42.86Z"></path><path class="cls-4" d="M32.86,15.42a1.72,1.72,0,0,1-1.21-.72,1.12,1.12,0,1,0-1.72,1.45,4.33,4.33,0,0,0,1.8,1.32v1.08a1.13,1.13,0,1,0,2.26,0V17.46a3.13,3.13,0,0,0-1.13-6.06.88.88,0,1,1,0-1.76,1.5,1.5,0,0,1,1,.49,1.14,1.14,0,0,0,1.6,0,1.12,1.12,0,0,0,0-1.59A4,4,0,0,0,34,7.58V6.5a1.13,1.13,0,0,0-2.26,0V7.59a3.14,3.14,0,0,0,1.13,6.07.88.88,0,0,1,0,1.76Z"></path></g></g></svg> 