<?xml version="1.0" encoding="UTF-8"?> <svg xmlns="http://www.w3.org/2000/svg" xmlns:xlink="http://www.w3.org/1999/xlink" viewBox="0 0 43.91 55.74"><defs><style>.cls-1{fill:url(#Degradado_sin_nombre_10);}.cls-2{fill:url(#Degradado_sin_nombre_10-2);}</style><linearGradient id="Degradado_sin_nombre_10" y1="27.87" x2="43.91" y2="27.87" gradientUnits="userSpaceOnUse"><stop offset="0" stop-color="#e2051b"></stop><stop offset="1" stop-color="#e95b0c"></stop></linearGradient><linearGradient id="Degradado_sin_nombre_10-2" x1="11.75" y1="28.52" x2="32.19" y2="28.52" xlink:href="#Degradado_sin_nombre_10"></linearGradient></defs><title>Recurso 1</title><g id="Capa_2" data-name="Capa 2"><g id="Capa_1-2" data-name="Capa 1"><path class="cls-1" d="M22,4.69c2.35,2.52,6.37,3.94,9.56,4.85A79.13,79.13,0,0,0,40,11.39V28a40.18,40.18,0,0,1-1,9.9,14.37,14.37,0,0,1-2.82,5.8C33.44,47,28.7,49.25,22,51.79,15.21,49.25,10.47,47,7.74,43.69a14.37,14.37,0,0,1-2.82-5.8,40.12,40.12,0,0,1-1-9.9V11.39A78.74,78.74,0,0,0,12.4,9.54c3.19-.91,7.2-2.33,9.55-4.85M23.38,0H20.53a.6.6,0,0,0-.59.48C19,5.16,4.3,7.42.76,7.9A.88.88,0,0,0,0,8.77V28C0,45.48,5.65,49.86,20.72,55.52a3.58,3.58,0,0,0,2.47,0c15.07-5.66,20.72-10,20.72-27.53V8.77a.88.88,0,0,0-.77-.87C39.6,7.42,24.93,5.16,24,.48A.61.61,0,0,0,23.38,0"></path><path class="cls-2" d="M18.39,36.28l-6.46-6.44a.63.63,0,0,1,0-.9l1.87-1.88a.63.63,0,0,1,.9,0l4.13,4.12,10.4-10.43a.63.63,0,0,1,.9,0L32,22.62a.65.65,0,0,1,0,.91L19.29,36.28a.63.63,0,0,1-.9,0"></path></g></g></svg> 