<?xml version="1.0" encoding="UTF-8"?> <svg xmlns="http://www.w3.org/2000/svg" xmlns:xlink="http://www.w3.org/1999/xlink" viewBox="0 0 55.75 55.8"><defs><style>.cls-1{fill:url(#Degradado_sin_nombre_10);}.cls-2{fill:url(#Degradado_sin_nombre_10-2);}.cls-3{fill:url(#Degradado_sin_nombre_10-3);}.cls-4{fill:url(#Degradado_sin_nombre_10-4);}.cls-5{fill:url(#Degradado_sin_nombre_10-5);}</style><linearGradient id="Degradado_sin_nombre_10" x1="41.9" y1="16.25" x2="44.18" y2="16.25" gradientUnits="userSpaceOnUse"><stop offset="0" stop-color="#e2051b"></stop><stop offset="1" stop-color="#e95b0c"></stop></linearGradient><linearGradient id="Degradado_sin_nombre_10-2" x1="40.89" y1="10.3" x2="46.62" y2="10.3" xlink:href="#Degradado_sin_nombre_10"></linearGradient><linearGradient id="Degradado_sin_nombre_10-3" x1="31.87" y1="13.93" x2="55.75" y2="13.93" xlink:href="#Degradado_sin_nombre_10"></linearGradient><linearGradient id="Degradado_sin_nombre_10-4" x1="0" y1="45.31" x2="35.8" y2="45.31" xlink:href="#Degradado_sin_nombre_10"></linearGradient><linearGradient id="Degradado_sin_nombre_10-5" x1="8.49" y1="23.19" x2="27.24" y2="23.19" xlink:href="#Degradado_sin_nombre_10"></linearGradient></defs><title>Recurso 2</title><g id="Capa_2" data-name="Capa 2"><g id="Capa_1-2" data-name="Capa 1"><path class="cls-1" d="M43.89,15.06h-1.7a.29.29,0,0,0-.29.29v1.82a.27.27,0,0,0,.29.27h1.7a.27.27,0,0,0,.29-.27V15.35a.29.29,0,0,0-.29-.29"></path><path class="cls-2" d="M41.14,8.7h0a13.68,13.68,0,0,1,2.06-.15c.51,0,.71.2.71.53v.14a2.31,2.31,0,0,1-.66,1.46l-.69.91a2.56,2.56,0,0,0-.61,1.9v.39a.28.28,0,0,0,.27.29h1.45c.15,0,.34-.1.34-.28v-.4c0-.3.16-.46.81-1.31l.65-.84a3.79,3.79,0,0,0,1.11-2.26V8.83c0-1.78-1.17-2.39-3.16-2.39a8.92,8.92,0,0,0-2.31.3c-.21.06-.26.16-.26.38V8.4c0,.2.09.3.25.3"></path><path class="cls-3" d="M54.67,0H33a1.08,1.08,0,0,0-1.08,1.08v26a.82.82,0,0,0,1.39.58L37,23.88H54.67a1.09,1.09,0,0,0,1.08-1.08V1.08A1.08,1.08,0,0,0,54.67,0m-2.9,19.9H35.85V4H51.77Z"></path><path class="cls-4" d="M30.9,38.28l-.09,0A26.47,26.47,0,0,1,24.88,35a1.08,1.08,0,0,0-1.38.16L22.23,36.5a1.08,1.08,0,0,0,.18,1.64A29.19,29.19,0,0,0,29.47,42c2.67.92,2.36,5.16,2.34,7.33a.65.65,0,0,1,0,.2.49.49,0,0,1-.14.11A15.21,15.21,0,0,1,27.45,51a51.89,51.89,0,0,1-9.55.81A51.89,51.89,0,0,1,8.35,51a11.93,11.93,0,0,1-3.81-1.1C3.8,49.46,4,48.8,4,48a13.56,13.56,0,0,1,.35-3.36,3.69,3.69,0,0,1,2-2.65,30.34,30.34,0,0,0,7.14-3.85,1.08,1.08,0,0,0,.17-1.64l-1.26-1.33A1.08,1.08,0,0,0,11,35a27.53,27.53,0,0,1-6,3.23l-.09,0C-.18,40.3,0,46.47,0,49.11c0,.25,0,.47,0,.64a4,4,0,0,0,2.31,3.42,15.17,15.17,0,0,0,4.1,1.5A52.66,52.66,0,0,0,17.9,55.8a52.82,52.82,0,0,0,11.47-1.13,15.21,15.21,0,0,0,4.09-1.5,4,4,0,0,0,2.32-3.42c0-.17,0-.39,0-.64.06-2.64.2-8.81-4.89-10.83"></path><path class="cls-5" d="M17.7,34.44H18a8.59,8.59,0,0,0,6.47-2.67c1.82-2,2.74-4.95,2.74-8.87,0-3.27-.57-5.64-1.78-7.44-1.57-2.34-4.13-3.52-7.59-3.52s-6,1.18-7.6,3.52c-1.21,1.8-1.78,4.17-1.78,7.44,0,3.92.92,6.9,2.74,8.87a8.6,8.6,0,0,0,6.47,2.67m.17-18.52c3.32,0,5.39,1.17,5.39,7,0,2.88-.57,5-1.68,6.17a4.82,4.82,0,0,1-3.71,1.4,4.81,4.81,0,0,1-3.71-1.4c-1.12-1.21-1.69-3.29-1.69-6.17,0-5.81,2.07-7,5.4-7"></path></g></g></svg> 